<svg xmlns="http://www.w3.org/2000/svg" viewBox="0 0 512 512"><path d="M502.02 156.63a15 15 0 00-.03-28.27L261 43.32a15 15 0 00-9.98 0l-241 85.04a15 15 0 00-.03 28.27l95.46 33.94v97.85c0 16.15 16.85 29.8 50.08 40.59 28.96 9.4 64.64 14.58 100.48 14.58s71.52-5.18 100.48-14.58c33.23-10.78 50.08-24.44 50.08-40.59v-97.85l39.41-14.01v135.58a45.2 45.2 0 00-30.12 42.56 45.2 45.2 0 0030.12 42.55v57.28a15 15 0 0030 0v-57.28a45.2 45.2 0 0030.13-42.55 45.2 45.2 0 00-30.13-42.56V165.9zm-41.05 213.19c-8.34 0-15.12-6.79-15.12-15.13s6.78-15.12 15.12-15.12 15.13 6.79 15.13 15.13-6.79 15.12-15.13 15.12zM256 73.38l196.07 69.17L256 212.25l-196.07-69.7zm120.56 212.78c-2.88 2.9-13.17 9.84-36.4 16.46-24.78 7.07-54.67 10.97-84.16 10.97s-59.38-3.9-84.16-10.96c-23.23-6.63-33.52-13.57-36.4-16.47v-84.92l115.53 41.07a15 15 0 0010.05 0l115.53-41.07v84.92z"/></svg>