<svg xmlns="http://www.w3.org/2000/svg" viewBox="0 0 512 512"><path d="M467 120h-76v-15C391 47.103 343.897 0 286 0h-60c-57.897 0-105 47.103-105 105v15H45c-24.813 0-45 20.187-45 45v302c0 24.813 20.187 45 45 45h422c24.813 0 45-20.187 45-45V165c0-24.813-20.187-45-45-45zm-316-15c0-41.355 33.645-75 75-75h60c41.355 0 75 33.645 75 75v15h-30v-15c0-24.813-20.187-45-45-45h-60c-24.813 0-45 20.187-45 45v15h-30v-15zm150 0v15h-90v-15c0-8.271 6.729-15 15-15h60c8.271 0 15 6.729 15 15zm181 362c0 8.271-6.729 15-15 15H45c-8.271 0-15-6.729-15-15v-15h452v15zm0-45H30V269.114c15.979 16.293 37.231 27.48 61 30.83V346c0 8.284 6.716 15 15 15h60c8.284 0 15-6.716 15-15v-45h150v45c0 8.284 6.716 15 15 15h60c8.284 0 15-6.716 15-15v-46.056c23.769-3.35 45.021-14.537 61-30.83V422zM151 301v30h-30v-30h30zm-30-30v-30h30v30h-30zm270 30v30h-30v-30h30zm-30-30v-30h30v30h-30zm121-75c0 36.288-26.254 66.634-61 73.526V226c0-8.284-6.716-15-15-15h-60c-8.284 0-15 6.716-15 15v45H181v-45c0-8.284-6.716-15-15-15h-60c-8.284 0-15 6.716-15 15v43.526C56.254 262.634 30 232.288 30 196v-31c0-8.271 6.729-15 15-15h422c8.271 0 15 6.729 15 15v31z"/></svg>