<svg width="400" height="400" viewBox="0 0 400 400" fill="none" xmlns="http://www.w3.org/2000/svg">
<path d="M373.438 206.269C373.24 165.657 358.344 126.49 331.504 96.0115C304.664 65.5327 267.695 45.8033 227.434 40.4719L227.988 40.0312C230.576 37.9592 232.236 34.9437 232.601 31.6481C232.967 28.3524 232.008 25.0466 229.936 22.4578C227.864 19.869 224.848 18.2094 221.553 17.844C218.257 17.4786 214.951 18.4374 212.363 20.5094L186.966 40.8219C184.544 42.785 182.95 45.5873 182.5 48.6719C146.592 54.1407 113.623 71.6912 89.0359 98.4256C64.4485 125.16 49.7131 159.48 47.2625 195.719C44.9219 196.324 42.8478 197.687 41.3642 199.596C39.8806 201.505 39.0712 203.851 39.0625 206.269C39.1614 247.271 54.2874 286.814 81.5778 317.416C108.868 348.017 146.429 367.552 187.153 372.325L186.969 372.469C184.38 374.541 182.721 377.556 182.356 380.851C181.991 384.147 182.95 387.452 185.022 390.041C187.094 392.629 190.109 394.288 193.405 394.653C196.7 395.018 200.005 394.059 202.594 391.987L227.994 371.675C230.515 369.624 232.132 366.667 232.5 363.437C267.883 357.471 300.224 339.758 324.305 313.155C348.385 286.553 362.801 252.613 365.225 216.812C367.567 216.21 369.643 214.849 371.129 212.941C372.615 211.033 373.427 208.687 373.438 206.269V206.269Z" fill="#E6E7E8"/>
<path d="M193.75 350.019C280.044 350.019 350 280.063 350 193.769C350 107.474 280.044 37.5188 193.75 37.5188C107.456 37.5188 37.5 107.474 37.5 193.769C37.5 280.063 107.456 350.019 193.75 350.019Z" fill="#EEFDFF"/>
<path d="M100.097 201.425L111.797 287.988C112.226 291.165 113.792 294.079 116.205 296.19C118.619 298.3 121.716 299.464 124.922 299.466H262.569C265.775 299.464 268.872 298.3 271.285 296.19C273.699 294.079 275.265 291.165 275.694 287.988L287.394 201.425H100.097Z" fill="#FFD2D2"/>
<path d="M265.694 290.091H121.806C119.801 290.09 117.821 289.634 116.018 288.757C114.215 287.879 112.635 286.603 111.397 285.025L111.797 287.988C112.226 291.165 113.792 294.079 116.205 296.19C118.619 298.3 121.716 299.464 124.922 299.466H262.569C265.775 299.464 268.872 298.3 271.285 296.19C273.699 294.079 275.265 291.165 275.694 287.988L276.094 285.025C274.857 286.602 273.278 287.877 271.477 288.755C269.675 289.632 267.698 290.089 265.694 290.091Z" fill="white"/>
<path d="M296.281 175H91.2187C87.7502 175.053 84.4417 176.469 82.0077 178.94C79.5737 181.412 78.2094 184.742 78.2094 188.211C78.2094 191.68 79.5737 195.01 82.0077 197.481C84.4417 199.953 87.7502 201.369 91.2187 201.422H296.281C299.75 201.369 303.058 199.953 305.492 197.481C307.926 195.01 309.291 191.68 309.291 188.211C309.291 184.742 307.926 181.412 305.492 178.94C303.058 176.469 299.75 175.053 296.281 175V175Z" fill="#EB5757"/>
<path d="M269.219 115.088C267.992 113.861 266.536 112.888 264.933 112.224C263.331 111.56 261.613 111.218 259.878 111.218C258.143 111.218 256.426 111.56 254.823 112.224C253.22 112.888 251.764 113.861 250.537 115.088L186.75 178.875C184.273 181.353 182.881 184.713 182.881 188.217C182.882 191.72 184.274 195.081 186.752 197.558C189.229 200.035 192.59 201.427 196.093 201.426C199.597 201.426 202.957 200.034 205.434 197.556L269.219 133.772C271.696 131.294 273.088 127.934 273.088 124.43C273.088 120.926 271.696 117.565 269.219 115.088V115.088Z" fill="#64A3D8"/>
<path d="M192.578 146.333C209.525 129.386 209.525 101.908 192.578 84.961C175.631 68.0135 148.153 68.0135 131.206 84.961C114.259 101.908 114.259 129.386 131.206 146.333C148.153 163.28 175.631 163.28 192.578 146.333Z" fill="#FFD2D2"/>
<path d="M186.44 140.195C199.998 126.638 199.998 104.656 186.44 91.0986C172.883 77.5409 150.901 77.5409 137.344 91.0986C123.786 104.656 123.786 126.638 137.344 140.195C150.901 153.753 172.883 153.753 186.44 140.195Z" fill="#EB5757"/>
<path d="M174.687 133.062C172.21 135.392 169.043 136.853 165.662 137.228V141.031C165.679 141.446 165.613 141.86 165.467 142.249C165.322 142.638 165.1 142.994 164.816 143.297C164.207 143.859 163.41 144.172 162.581 144.172C161.753 144.172 160.955 143.859 160.347 143.297C160.063 142.994 159.842 142.638 159.697 142.249C159.552 141.86 159.486 141.446 159.503 141.031V137.35C157.217 137.149 154.965 136.662 152.8 135.9C150.77 135.214 148.869 134.194 147.175 132.881C146.711 132.584 146.336 132.168 146.091 131.675C145.871 131.16 145.764 130.604 145.778 130.044C145.775 129.232 146.052 128.444 146.563 127.812C146.753 127.527 147.008 127.29 147.307 127.122C147.607 126.954 147.941 126.86 148.284 126.847C148.667 126.843 149.048 126.914 149.403 127.056C149.869 127.261 150.322 127.494 150.759 127.753C152.452 128.883 154.291 129.777 156.225 130.409C158.054 130.977 159.96 131.26 161.875 131.25C164.07 131.387 166.253 130.841 168.125 129.687C168.841 129.178 169.418 128.496 169.8 127.704C170.183 126.913 170.359 126.037 170.312 125.159C170.332 124.627 170.234 124.097 170.025 123.606C169.817 123.116 169.503 122.677 169.106 122.322C168.225 121.553 167.198 120.967 166.087 120.6C164.881 120.183 163.191 119.691 161.016 119.122C158.509 118.52 156.048 117.743 153.65 116.797C151.755 116.009 150.077 114.777 148.759 113.203C147.309 111.35 146.58 109.034 146.706 106.684C146.682 105.129 146.98 103.585 147.582 102.15C148.185 100.716 149.078 99.4216 150.206 98.3499C152.721 95.9708 155.937 94.467 159.375 94.0624V90.2531C159.359 89.8381 159.425 89.424 159.57 89.035C159.716 88.646 159.937 88.2899 160.222 87.9874C160.83 87.425 161.628 87.1125 162.456 87.1125C163.285 87.1125 164.082 87.425 164.691 87.9874C164.975 88.2901 165.196 88.6464 165.34 89.0354C165.485 89.4244 165.551 89.8383 165.534 90.2531V94.0031C169.386 94.4375 173.032 95.9666 176.041 98.4093C176.497 98.7276 176.868 99.1531 177.12 99.6485C177.373 100.144 177.5 100.694 177.491 101.25C177.503 102.059 177.236 102.847 176.734 103.481C176.536 103.773 176.271 104.013 175.961 104.181C175.651 104.349 175.306 104.44 174.953 104.447C174.594 104.447 174.236 104.387 173.897 104.269C173.42 104.076 172.965 103.833 172.541 103.544C171.086 102.488 169.513 101.606 167.853 100.916C166.183 100.298 164.411 100.001 162.631 100.041C160.511 99.9312 158.413 100.514 156.653 101.7C155.938 102.218 155.361 102.904 154.974 103.697C154.587 104.491 154.402 105.368 154.434 106.25C154.41 106.847 154.51 107.443 154.729 107.999C154.947 108.555 155.279 109.06 155.703 109.481C156.613 110.347 157.707 110.996 158.903 111.381C160.191 111.825 161.942 112.329 164.156 112.894C166.603 113.464 169.005 114.21 171.344 115.125C173.181 115.882 174.808 117.073 176.084 118.597C177.474 120.398 178.17 122.638 178.047 124.909C178.078 126.426 177.796 127.933 177.218 129.336C176.64 130.739 175.778 132.008 174.687 133.062V133.062Z" fill="white"/>
<path d="M207.034 30.2906L213.534 25.0906C214.509 24.3261 215.322 23.376 215.928 22.2953C216.533 21.2145 216.918 20.0246 217.061 18.7942C217.203 17.5638 217.101 16.3173 216.759 15.1267C216.417 13.9362 215.842 12.8252 215.069 11.858C214.295 10.8907 213.337 10.0864 212.251 9.49152C211.164 8.89662 209.971 8.52291 208.739 8.39199C207.507 8.26107 206.262 8.37554 205.074 8.72878C203.887 9.08201 202.782 9.66702 201.822 10.45L176.422 30.7625C175.359 31.6127 174.494 32.6842 173.887 33.9024C173.28 35.1206 172.946 36.4563 172.907 37.8168C172.869 39.1773 173.127 40.5299 173.663 41.7806C174.2 43.0313 175.003 44.1502 176.016 45.0594L200.391 66.9344C202.241 68.5953 204.676 69.453 207.159 69.3188C209.642 69.1846 211.97 68.0695 213.631 66.2187C215.292 64.368 216.15 61.9333 216.016 59.4502C215.881 56.9671 214.766 54.639 212.916 52.9781L204.909 45.7906C242.219 48.6422 277.079 65.464 302.528 92.8959C327.976 120.328 342.139 156.35 342.188 193.769C342.188 195.841 343.011 197.828 344.476 199.293C345.941 200.758 347.928 201.581 350 201.581C352.072 201.581 354.059 200.758 355.524 199.293C356.989 197.828 357.813 195.841 357.813 193.769C357.758 152.577 342.227 112.909 314.3 82.6295C286.373 52.3499 248.088 33.6692 207.034 30.2906V30.2906Z" fill="#95CFD7"/>
<path d="M213.941 342.428L189.566 320.553C188.649 319.731 187.58 319.097 186.419 318.688C185.257 318.279 184.027 318.102 182.797 318.169C181.568 318.235 180.363 318.543 179.253 319.075C178.142 319.607 177.147 320.352 176.325 321.269C175.503 322.185 174.869 323.255 174.46 324.416C174.051 325.577 173.874 326.808 173.941 328.037C174.007 329.267 174.315 330.471 174.847 331.582C175.379 332.692 176.124 333.687 177.041 334.509L185.319 341.938C147.492 339.743 111.931 323.182 85.9076 295.641C59.8841 268.1 45.3628 231.66 45.3125 193.769C45.3125 191.697 44.4894 189.71 43.0243 188.245C41.5591 186.779 39.572 185.956 37.5 185.956C35.428 185.956 33.4409 186.779 31.9757 188.245C30.5106 189.71 29.6875 191.697 29.6875 193.769C29.7414 235.342 45.5586 275.349 73.9489 305.719C102.339 336.089 141.19 354.563 182.666 357.416L176.416 362.416C174.501 363.978 173.28 366.232 173.019 368.689C172.758 371.146 173.477 373.607 175.021 375.537C176.565 377.466 178.807 378.708 181.262 378.993C183.716 379.277 186.184 378.581 188.128 377.056L213.528 356.744C214.591 355.894 215.456 354.822 216.063 353.604C216.67 352.386 217.004 351.05 217.043 349.689C217.081 348.329 216.823 346.976 216.287 345.726C215.75 344.475 214.947 343.356 213.934 342.447L213.941 342.428Z" fill="#95CFD7"/>
<path d="M296.281 171.875H235.528L271.428 135.981C272.945 134.465 274.148 132.664 274.969 130.682C275.791 128.7 276.213 126.576 276.213 124.431C276.214 122.286 275.791 120.161 274.97 118.18C274.15 116.198 272.946 114.397 271.43 112.88C269.913 111.363 268.112 110.159 266.13 109.338C264.149 108.517 262.024 108.095 259.879 108.094C257.734 108.094 255.61 108.517 253.628 109.338C251.646 110.158 249.845 111.361 248.328 112.878L189.325 171.875H91.2188C86.9253 171.934 82.8279 173.682 79.8127 176.739C76.7976 179.796 75.1072 183.917 75.1072 188.211C75.1072 192.505 76.7976 196.626 79.8127 199.683C82.8279 202.74 86.9253 204.488 91.2188 204.547H97.3656L108.7 288.406C109.242 292.33 111.183 295.925 114.165 298.531C117.148 301.137 120.971 302.579 124.931 302.591H262.569C266.529 302.579 270.352 301.137 273.335 298.531C276.317 295.925 278.258 292.33 278.8 288.406L290.134 204.55H296.281C300.614 204.55 304.77 202.829 307.834 199.765C310.897 196.701 312.619 192.546 312.619 188.213C312.619 183.88 310.897 179.724 307.834 176.66C304.77 173.596 300.614 171.875 296.281 171.875V171.875ZM252.747 117.297C253.678 116.336 254.791 115.569 256.021 115.043C257.252 114.516 258.574 114.239 259.913 114.229C261.251 114.218 262.578 114.474 263.816 114.981C265.054 115.489 266.179 116.237 267.126 117.184C268.072 118.13 268.82 119.255 269.327 120.494C269.834 121.732 270.09 123.059 270.079 124.398C270.068 125.736 269.791 127.058 269.264 128.289C268.737 129.519 267.971 130.632 267.009 131.563L203.222 195.347C201.301 197.181 198.747 198.204 196.091 198.204C193.435 198.204 190.881 197.181 188.959 195.347C187.071 193.454 186.01 190.889 186.01 188.216C186.01 185.542 187.071 182.977 188.959 181.084L252.747 117.297ZM272.603 287.569C272.269 289.995 271.069 292.218 269.225 293.83C267.382 295.442 265.018 296.334 262.569 296.341H124.931C122.482 296.334 120.118 295.442 118.275 293.83C116.431 292.218 115.231 289.995 114.897 287.569L103.675 204.55H111.744C112.573 204.55 113.367 204.221 113.953 203.635C114.54 203.049 114.869 202.254 114.869 201.425C114.869 200.596 114.54 199.801 113.953 199.215C113.367 198.629 112.573 198.3 111.744 198.3H91.2188C88.5745 198.254 86.0544 197.17 84.2009 195.284C82.3474 193.398 81.3088 190.859 81.3088 188.214C81.3088 185.57 82.3474 183.031 84.2009 181.144C86.0544 179.258 88.5745 178.175 91.2188 178.128H183.344C181.071 180.999 179.835 184.553 179.835 188.214C179.835 191.875 181.071 195.429 183.344 198.3H156.822C155.993 198.3 155.198 198.629 154.612 199.215C154.026 199.801 153.697 200.596 153.697 201.425C153.697 202.254 154.026 203.049 154.612 203.635C155.198 204.221 155.993 204.55 156.822 204.55H283.825L272.603 287.569ZM296.281 198.3H209.094L229.278 178.125H296.281C298.925 178.172 301.446 179.255 303.299 181.141C305.153 183.028 306.191 185.566 306.191 188.211C306.191 190.856 305.153 193.394 303.299 195.281C301.446 197.167 298.925 198.25 296.281 198.297V198.3Z" fill="#333333"/>
<path d="M148.325 201.425C148.325 200.596 147.996 199.801 147.41 199.215C146.824 198.629 146.029 198.3 145.2 198.3H123.081C122.252 198.3 121.458 198.629 120.872 199.215C120.285 199.801 119.956 200.596 119.956 201.425C119.956 202.254 120.285 203.049 120.872 203.635C121.458 204.221 122.252 204.55 123.081 204.55H145.2C146.029 204.55 146.824 204.221 147.41 203.635C147.996 203.049 148.325 202.254 148.325 201.425Z" fill="#333333"/>
<path d="M178.919 280.575C179.748 280.575 180.542 280.246 181.128 279.66C181.714 279.074 182.044 278.279 182.044 277.45V224C182.044 223.171 181.714 222.376 181.128 221.79C180.542 221.204 179.748 220.875 178.919 220.875C178.09 220.875 177.295 221.204 176.709 221.79C176.123 222.376 175.794 223.171 175.794 224V277.438C175.792 277.849 175.872 278.257 176.028 278.637C176.184 279.018 176.414 279.364 176.705 279.655C176.995 279.947 177.34 280.178 177.72 280.336C178.1 280.494 178.507 280.575 178.919 280.575Z" fill="#333333"/>
<path d="M143.322 220.888C142.913 220.921 142.514 221.035 142.149 221.222C141.784 221.41 141.459 221.668 141.193 221.981C140.928 222.294 140.727 222.657 140.601 223.047C140.476 223.438 140.429 223.85 140.463 224.259L144.878 277.697C144.943 278.481 145.3 279.211 145.879 279.743C146.459 280.274 147.217 280.568 148.003 280.566C148.09 280.57 148.176 280.57 148.263 280.566C148.672 280.532 149.07 280.418 149.436 280.231C149.801 280.043 150.125 279.785 150.391 279.472C150.656 279.159 150.858 278.797 150.983 278.406C151.109 278.015 151.156 277.603 151.122 277.194L146.694 223.75C146.661 223.341 146.547 222.942 146.36 222.576C146.172 222.211 145.915 221.886 145.601 221.62C145.288 221.354 144.926 221.152 144.535 221.027C144.143 220.901 143.731 220.854 143.322 220.888V220.888Z" fill="#333333"/>
<path d="M209.837 280.575C210.666 280.575 211.461 280.246 212.047 279.66C212.633 279.074 212.962 278.279 212.962 277.45V224C212.962 223.171 212.633 222.376 212.047 221.79C211.461 221.204 210.666 220.875 209.837 220.875C209.009 220.875 208.214 221.204 207.628 221.79C207.042 222.376 206.712 223.171 206.712 224V277.438C206.711 277.849 206.79 278.257 206.947 278.637C207.103 279.018 207.333 279.364 207.623 279.655C207.914 279.947 208.259 280.178 208.639 280.336C209.019 280.494 209.426 280.575 209.837 280.575Z" fill="#333333"/>
<path d="M240.506 280.563C240.593 280.567 240.679 280.567 240.766 280.563C241.552 280.565 242.31 280.271 242.889 279.74C243.469 279.208 243.826 278.477 243.891 277.694L248.306 224.256C248.373 223.428 248.109 222.608 247.571 221.975C247.033 221.342 246.265 220.948 245.437 220.881C244.61 220.814 243.789 221.079 243.156 221.617C242.523 222.155 242.13 222.922 242.062 223.75L237.647 277.187C237.613 277.597 237.659 278.009 237.785 278.4C237.91 278.792 238.111 279.154 238.377 279.468C238.642 279.781 238.967 280.039 239.332 280.227C239.698 280.415 240.097 280.529 240.506 280.563V280.563Z" fill="#333333"/>
<path d="M196.725 193.103C199.775 193.103 202.247 190.631 202.247 187.581C202.247 184.532 199.775 182.059 196.725 182.059C193.675 182.059 191.203 184.532 191.203 187.581C191.203 190.631 193.675 193.103 196.725 193.103Z" fill="#333333"/>
<path d="M161.919 162.169C171.121 162.169 180.118 159.441 187.77 154.329C195.422 149.216 201.386 141.95 204.908 133.448C208.43 124.946 209.351 115.59 207.556 106.564C205.761 97.5383 201.329 89.2475 194.822 82.7402C188.315 76.233 180.024 71.8015 170.998 70.0063C161.972 68.2111 152.617 69.1328 144.115 72.6548C135.613 76.1768 128.346 82.1409 123.234 89.7929C118.122 97.4449 115.393 106.441 115.394 115.644C115.409 127.978 120.315 139.804 129.037 148.525C137.759 157.247 149.584 162.154 161.919 162.169V162.169ZM161.919 75.3656C169.885 75.365 177.673 77.7267 184.297 82.1521C190.921 86.5776 196.084 92.8679 199.133 100.228C202.182 107.588 202.98 115.686 201.426 123.5C199.873 131.313 196.037 138.49 190.404 144.124C184.771 149.757 177.594 153.593 169.781 155.148C161.968 156.702 153.869 155.905 146.509 152.856C139.149 149.808 132.858 144.645 128.432 138.021C124.006 131.398 121.644 123.61 121.644 115.644C121.653 104.965 125.899 94.7255 133.45 87.1739C141.001 79.6224 151.24 75.3755 161.919 75.3656V75.3656Z" fill="#333333"/>
<path d="M360.938 193.769C360.74 153.157 345.844 113.99 319.004 83.5115C292.164 53.0327 255.195 33.3033 214.934 27.9719L215.488 27.5312C218.076 25.4592 219.736 22.4437 220.101 19.1481C220.467 15.8524 219.508 12.5466 217.436 9.95781C215.364 7.36905 212.348 5.70941 209.053 5.34401C205.757 4.97861 202.451 5.93737 199.863 8.00937L174.466 28.3219C172.027 30.3036 170.431 33.1371 170 36.25C134.105 41.7098 101.145 59.2468 76.5621 85.9658C51.9788 112.685 37.2419 146.988 34.7844 183.213C32.4387 183.814 30.3589 185.176 28.8709 187.087C27.383 188.997 26.5711 191.347 26.5625 193.769C26.6614 234.771 41.7874 274.315 69.0778 304.916C96.3682 335.517 133.929 355.052 174.653 359.825L174.469 359.969C173.187 360.995 172.12 362.263 171.329 363.701C170.537 365.14 170.037 366.72 169.856 368.351C169.675 369.983 169.818 371.635 170.275 373.211C170.732 374.788 171.496 376.259 172.522 377.541C173.548 378.822 174.816 379.889 176.254 380.681C177.693 381.472 179.273 381.973 180.905 382.153C182.536 382.334 184.188 382.192 185.764 381.734C187.341 381.277 188.812 380.513 190.094 379.488L215.494 359.175C218.027 357.124 219.653 354.16 220.022 350.922C255.401 344.96 287.739 327.252 311.819 300.655C335.898 274.058 350.314 240.124 352.741 204.328C355.082 203.722 357.157 202.357 358.64 200.446C360.123 198.536 360.931 196.187 360.938 193.769V193.769ZM211.581 354.288L186.181 374.6C184.874 375.6 183.231 376.056 181.595 375.874C179.959 375.693 178.457 374.887 177.4 373.625C176.365 372.331 175.885 370.678 176.068 369.031C176.251 367.384 177.081 365.876 178.375 364.841L184.625 359.841C185.116 359.447 185.477 358.915 185.66 358.313C185.843 357.711 185.841 357.068 185.653 356.468C185.465 355.868 185.1 355.338 184.606 354.948C184.112 354.559 183.512 354.327 182.884 354.284C142.215 351.448 104.128 333.316 76.2854 303.536C48.4429 273.756 32.9104 234.537 32.8125 193.769C32.8125 192.526 33.3064 191.333 34.1854 190.454C35.0645 189.575 36.2568 189.081 37.5 189.081C38.7432 189.081 39.9355 189.575 40.8146 190.454C41.6936 191.333 42.1875 192.526 42.1875 193.769C42.1975 232.474 57.0127 269.709 83.596 297.842C110.179 325.974 146.517 342.872 185.159 345.072C185.804 345.101 186.442 344.933 186.988 344.59C187.535 344.247 187.964 343.746 188.219 343.153C188.467 342.555 188.524 341.895 188.382 341.264C188.239 340.632 187.903 340.061 187.422 339.628L179.141 332.2C177.907 331.091 177.163 329.538 177.075 327.882C176.986 326.225 177.559 324.601 178.667 323.367C179.776 322.133 181.329 321.39 182.986 321.301C184.642 321.212 186.266 321.785 187.5 322.894L211.875 344.769C212.551 345.375 213.086 346.121 213.444 346.955C213.802 347.789 213.974 348.692 213.949 349.599C213.923 350.506 213.7 351.397 213.294 352.21C212.889 353.022 212.312 353.736 211.603 354.303L211.581 354.288ZM219.241 344.713C218.535 342.951 217.436 341.375 216.028 340.103L191.653 318.228C190.431 317.132 189.006 316.286 187.457 315.741C185.909 315.195 184.268 314.96 182.629 315.049C179.319 315.227 176.215 316.714 174 319.181C171.785 321.649 170.642 324.895 170.82 328.205C170.999 331.516 172.486 334.62 174.953 336.834L176.256 338.003C141.011 333.722 108.552 316.688 85.0042 290.117C61.4566 263.545 48.4495 229.273 48.4375 193.769C48.4321 191.491 47.7146 189.273 46.3854 187.424C45.0562 185.574 43.1819 184.187 41.025 183.456C43.4185 148.736 57.5534 115.863 81.1063 90.2403C104.659 64.6179 136.228 47.771 170.625 42.4687C171.315 44.353 172.451 46.0426 173.934 47.3937L198.309 69.2687C199.532 70.3647 200.958 71.2091 202.507 71.7537C204.056 72.2984 205.697 72.5326 207.336 72.4431C208.976 72.3536 210.581 71.9421 212.062 71.232C213.542 70.5219 214.868 69.5272 215.964 68.3047C217.06 67.0822 217.904 65.6557 218.449 64.1069C218.994 62.558 219.228 60.9171 219.138 59.2777C219.049 57.6383 218.637 56.0326 217.927 54.5522C217.217 53.0719 216.223 51.7459 215 50.65L214.209 49.9406C248.795 54.9901 280.42 72.285 303.333 98.6799C326.246 125.075 338.924 158.816 339.062 193.769C339.069 196.048 339.789 198.268 341.121 200.118C342.453 201.967 344.331 203.353 346.491 204.081C344.124 238.397 330.29 270.92 307.211 296.426C284.133 321.932 253.149 338.938 219.241 344.713V344.713ZM350 198.456C348.757 198.456 347.565 197.962 346.685 197.083C345.806 196.204 345.312 195.012 345.312 193.769C345.172 155.587 330.679 118.855 304.71 90.8649C278.74 62.8748 243.195 45.6742 205.131 42.6781C205.054 42.6781 204.976 42.6781 204.897 42.6781C204.266 42.6796 203.649 42.8722 203.13 43.2307C202.61 43.5891 202.211 44.0966 201.985 44.6862C201.76 45.2759 201.718 45.92 201.866 46.5339C202.013 47.1477 202.343 47.7024 202.813 48.125L210.819 55.3125C211.43 55.8611 211.926 56.5246 212.281 57.2652C212.635 58.0058 212.84 58.809 212.884 59.6288C212.927 60.4486 212.809 61.269 212.536 62.0432C212.263 62.8173 211.839 63.5301 211.291 64.1406C210.159 65.332 208.615 66.0453 206.975 66.1342C205.334 66.2231 203.722 65.6809 202.469 64.6187L178.094 42.7437C177.419 42.1375 176.884 41.3916 176.526 40.5577C176.168 39.7239 175.996 38.8221 176.022 37.9151C176.048 37.0082 176.271 36.1177 176.676 35.3056C177.08 34.4935 177.657 33.7792 178.366 33.2125L203.766 12.9C204.406 12.387 205.142 12.0053 205.93 11.7766C206.719 11.5479 207.544 11.4767 208.36 11.5671C209.176 11.6575 209.966 11.9077 210.685 12.3034C211.404 12.6991 212.039 13.2326 212.552 13.8734C213.065 14.5142 213.446 15.2498 213.675 16.0382C213.904 16.8265 213.975 17.6522 213.884 18.468C213.794 19.2839 213.544 20.0739 213.148 20.7931C212.752 21.5122 212.219 22.1464 211.578 22.6594L205.078 27.8594C204.59 28.2508 204.23 28.7798 204.046 29.3779C203.862 29.976 203.862 30.6156 204.045 31.2139C204.229 31.8122 204.587 32.3417 205.075 32.7337C205.563 33.1256 206.157 33.3621 206.781 33.4125C247 36.8605 284.475 55.2247 311.844 84.8966C339.212 114.569 354.494 153.403 354.688 193.769C354.687 195.012 354.194 196.204 353.315 197.083C352.435 197.962 351.243 198.456 350 198.456V198.456Z" fill="#333333"/>
</svg>
