<svg width="400" height="400" viewBox="0 0 400 400" fill="none" xmlns="http://www.w3.org/2000/svg">
<path d="M380.509 86.75C380.509 72.9438 369.316 61.75 355.509 61.75H278.191C257.175 41.7438 229.622 31.3438 200.525 32.4344C173.85 33.4469 149.6 44.4469 131.381 61.75H53.8656C40.0593 61.75 28.8656 72.9438 28.8656 86.75V293.813C28.8656 307.619 40.0593 318.813 53.8656 318.813H169L163.356 356.588H134.669C129.025 356.588 124.453 361.163 124.453 366.803C124.453 372.447 129.028 377.019 134.669 377.019H274.703C280.347 377.019 284.919 372.444 284.919 366.803C284.919 361.163 280.347 356.588 274.703 356.588H246.016L240.375 318.813H355.512C369.319 318.813 380.512 307.619 380.512 293.813V86.75H380.509Z" fill="#E6E7E8"/>
<path d="M41.3656 303.188H343.009C355.091 303.188 364.884 293.394 364.884 281.313V74.25C364.884 62.1688 355.091 52.375 343.009 52.375H41.3656C29.2844 52.375 19.4906 62.1688 19.4906 74.25V281.313C19.4906 293.394 29.2844 303.188 41.3656 303.188V303.188Z" fill="#95CFD7"/>
<path d="M364.884 260.494V74.25C364.884 62.1688 355.091 52.375 343.009 52.375H41.3656C29.2844 52.375 19.4906 62.1688 19.4906 74.25V260.494H364.884Z" fill="#EEFDFF"/>
<path d="M343.009 52.375H41.3656C29.2844 52.375 19.4906 62.1687 19.4906 74.25V83.625C19.4906 71.5437 29.2844 61.75 41.3656 61.75H343.009C355.091 61.75 364.884 71.5437 364.884 83.625V74.25C364.884 62.1687 355.091 52.375 343.009 52.375Z" fill="white"/>
<path d="M122.172 361.397H262.203C266.119 361.397 269.294 358.222 269.294 354.306C269.294 350.391 266.119 347.216 262.203 347.216H122.172C118.256 347.216 115.081 350.391 115.081 354.306C115.078 358.222 118.253 361.397 122.172 361.397Z" fill="#64A3D8"/>
<path d="M160.128 303.188H224.247L230.825 347.213H153.55L160.128 303.188Z" fill="#64A3D8"/>
<path d="M289.775 287.203C293.408 287.203 296.353 284.258 296.353 280.625C296.353 276.992 293.408 274.047 289.775 274.047C286.142 274.047 283.197 276.992 283.197 280.625C283.197 284.258 286.142 287.203 289.775 287.203Z" fill="white"/>
<path d="M312.803 287.203C316.436 287.203 319.381 284.258 319.381 280.625C319.381 276.992 316.436 274.047 312.803 274.047C309.17 274.047 306.225 276.992 306.225 280.625C306.225 284.258 309.17 287.203 312.803 287.203Z" fill="#64A3D8"/>
<path d="M335.828 287.203C339.461 287.203 342.406 284.258 342.406 280.625C342.406 276.992 339.461 274.047 335.828 274.047C332.195 274.047 329.25 276.992 329.25 280.625C329.25 284.258 332.195 287.203 335.828 287.203Z" fill="#EB5757"/>
<path d="M272.525 174.063C268.125 171.522 266.481 166.056 268.603 161.441C273.497 150.791 276.234 138.953 276.234 126.488C276.234 80.1563 238.528 42.4501 192.175 42.4501C145.822 42.4501 108.137 80.1532 108.137 126.484C108.137 170.113 141.531 206.072 184.106 210.147V198.066C184.106 193.875 188.644 191.256 192.272 193.35L227.484 213.678C246.678 205.897 262.712 191.975 273.153 174.334C272.947 174.238 272.728 174.178 272.525 174.063V174.063Z" fill="#FFD2D2"/>
<path d="M188.144 23.0563C134.497 25.0938 90.7844 68.8063 88.7469 122.456C86.6125 178.725 129.397 225.444 184.106 229.666V239.275C184.106 243.466 188.644 246.084 192.272 243.991L227.959 223.384C231.587 221.288 231.587 216.05 227.959 213.953L192.272 193.347C188.644 191.25 184.106 193.872 184.106 198.063V210.144C141.531 206.069 108.137 170.109 108.137 126.481C108.137 80.15 145.825 42.4438 192.175 42.4438C238.525 42.4438 276.234 80.15 276.234 126.481C276.234 138.95 273.497 150.788 268.603 161.434C266.481 166.053 268.122 171.516 272.525 174.056C277.528 176.947 283.887 174.85 286.3 169.6C292.331 156.472 295.7 141.872 295.7 126.481C295.703 67.9719 247.156 20.8157 188.144 23.0563V23.0563Z" fill="#EB5757"/>
<path d="M243.75 95.1125L192.187 119.781V180.997L243.75 156.328V95.1125Z" fill="#EEFDFF"/>
<path d="M140.625 95.1125L192.187 119.781V180.997L140.625 156.328V95.1125Z" fill="#64A3D8"/>
<path d="M192.187 119.781L140.669 95.1343L192.187 70.4874L243.706 95.1343L192.187 119.781Z" fill="#95CFD7"/>
<path d="M343.009 49.25H265.694C244.678 29.2406 217.116 18.8344 188.025 19.9313C161.35 20.9438 137.1 31.9469 118.881 49.25H41.3656C27.5812 49.25 16.3656 60.4656 16.3656 74.25V281.312C16.3656 295.097 27.5812 306.312 41.3656 306.312H156.503L150.856 344.084H122.169C116.534 344.084 111.95 348.669 111.95 354.303C111.95 359.938 116.534 364.519 122.169 364.519H262.203C267.837 364.519 272.422 359.938 272.422 354.303C272.422 348.669 267.837 344.084 262.203 344.084H233.516L227.875 306.316H343.012C356.797 306.316 368.012 295.1 368.012 281.316V226.144C368.012 224.419 366.612 223.019 364.887 223.019C363.162 223.019 361.762 224.419 361.762 226.144V257.369H22.6156V74.25C22.6156 63.9094 31.025 55.5 41.3656 55.5H112.8C96.7312 73.4375 86.5937 96.775 85.625 122.334C83.4812 178.875 125.153 226.719 180.981 232.519V239.275C180.981 242.375 182.584 245.147 185.266 246.697C186.606 247.472 188.078 247.859 189.55 247.859C191.022 247.859 192.494 247.472 193.834 246.697L229.522 226.091C232.206 224.541 233.809 221.766 233.806 218.669C233.806 217.241 233.431 215.897 232.8 214.694C249.966 206.753 264.397 193.959 274.394 178.066C276.65 178.606 279.022 178.597 281.269 177.884C284.741 176.778 287.606 174.238 289.137 170.913C295.566 156.919 298.825 141.972 298.825 126.488C298.825 99.95 289.241 75.05 271.728 55.5031H343.006C353.347 55.5031 361.756 63.9125 361.756 74.2531V166.319C361.756 168.044 363.156 169.444 364.881 169.444C366.606 169.444 368.006 168.044 368.006 166.319V74.25C368.009 60.4656 356.794 49.25 343.009 49.25V49.25ZM266.172 354.303C266.172 356.491 264.394 358.269 262.203 358.269H122.172C119.984 358.269 118.203 356.491 118.203 354.303C118.203 352.116 119.981 350.334 122.172 350.334H262.206C264.391 350.338 266.172 352.116 266.172 354.303ZM227.197 344.088H157.175L162.822 306.316H221.553L227.197 344.088ZM361.759 263.619V281.316C361.759 291.656 353.35 300.066 343.009 300.066H41.3656C31.025 300.066 22.6156 291.656 22.6156 281.316V263.619H361.759ZM227.606 210.141L193.837 190.644C191.156 189.094 187.95 189.094 185.269 190.644C182.587 192.194 180.984 194.966 180.984 198.066V206.637C141 201.131 111.266 167.259 111.266 126.484C111.266 81.8687 147.562 45.5719 192.181 45.5719C236.806 45.5719 273.112 81.8687 273.112 126.484C273.112 138.206 270.641 149.531 265.769 160.134C263.328 165.441 264.681 171.494 268.822 175.197C258.975 190.644 244.628 202.903 227.606 210.141V210.141ZM283.462 168.3C282.669 170.031 281.178 171.353 279.378 171.928C277.594 172.494 275.716 172.294 274.091 171.353C271.116 169.637 269.981 165.934 271.447 162.744C276.7 151.316 279.362 139.116 279.362 126.484C279.362 78.4219 240.253 39.3219 192.181 39.3219C144.119 39.3219 105.016 78.4219 105.016 126.484C105.016 171.653 138.891 208.956 183.809 213.259C184.681 213.347 185.556 213.053 186.209 212.462C186.862 211.869 187.234 211.031 187.234 210.15V198.069C187.234 196.859 188.044 196.262 188.394 196.059C188.744 195.856 189.666 195.45 190.712 196.059L226.4 216.666C227.447 217.269 227.559 218.272 227.559 218.672C227.559 219.075 227.447 220.078 226.4 220.681L190.712 241.288C189.666 241.888 188.744 241.488 188.394 241.288C188.047 241.088 187.234 240.488 187.234 239.278V229.669C187.234 228.038 185.978 226.678 184.35 226.553C130.441 222.388 89.8187 176.719 91.875 122.578C93.8469 70.4969 136.187 28.1563 188.266 26.1781C215.819 25.1219 241.978 35.0687 261.816 54.1687C281.656 73.2687 292.581 98.9531 292.581 126.484C292.578 141.062 289.512 155.134 283.462 168.3V168.3Z" fill="#333333"/>
<path d="M364.884 176.35C363.159 176.35 361.759 177.75 361.759 179.475V213.466C361.759 215.191 363.159 216.591 364.884 216.591C366.609 216.591 368.009 215.191 368.009 213.466V179.475C368.009 177.747 366.609 176.35 364.884 176.35V176.35Z" fill="#333333"/>
<path d="M245.053 92.3156L193.534 67.6687C192.681 67.2594 191.691 67.2594 190.837 67.6687L139.319 92.3156C138.234 92.8344 137.544 93.9281 137.544 95.1312L137.5 156.328C137.5 157.531 138.191 158.628 139.275 159.147L190.837 183.816C191.266 184.019 191.725 184.122 192.187 184.122C192.65 184.122 193.109 184.019 193.537 183.816L245.1 159.147C246.184 158.628 246.875 157.531 246.875 156.328L246.831 95.1312C246.828 93.9281 246.141 92.8344 245.053 92.3156V92.3156ZM192.187 73.95L236.466 95.1344L192.187 116.319L147.909 95.1344L192.187 73.95ZM143.791 100.091L189.062 121.753V176.041L143.75 154.362L143.791 100.091ZM195.312 176.041V121.753L240.584 100.094L240.625 154.362L195.312 176.041Z" fill="#333333"/>
</svg>
