<svg width="400" height="400" viewBox="0 0 400 400" fill="none" xmlns="http://www.w3.org/2000/svg">
<path d="M390.456 339.334H357.497V156.441C357.497 144.381 347.681 134.566 335.622 134.566H307.747C303.806 126.866 296.544 121.134 287.844 119.325C282.922 96.8937 262.919 80.0406 239.028 80.0406H237.5V63.6437C243.709 62.2156 248.366 56.6718 248.366 50.0343C248.366 42.3187 242.091 36.0437 234.375 36.0437C226.659 36.0437 220.384 42.3187 220.384 50.0343C220.384 56.6718 225.041 62.2156 231.25 63.6437V80.0406H181.25V63.6437C187.459 62.2156 192.116 56.6718 192.116 50.0343C192.116 42.3187 185.841 36.0437 178.125 36.0437C170.409 36.0437 164.134 42.3187 164.134 50.0343C164.134 56.6718 168.791 62.2156 175 63.6437V80.0406H173.469C149.581 80.0406 129.578 96.8906 124.653 119.325C115.953 121.137 108.691 126.866 104.75 134.566H76.8688C64.8094 134.566 54.9938 144.381 54.9938 156.441V339.331H22.0438C20.3156 339.331 18.9188 340.728 18.9188 342.456V354.75C18.9188 366.719 28.6531 376.453 40.6219 376.453H371.872C383.844 376.453 393.581 366.719 393.581 354.75V342.456C393.581 340.731 392.184 339.334 390.456 339.334V339.334Z" fill="#E6E7E8"/>
<path d="M341.875 329.959V143.941C341.875 133.584 333.481 125.191 323.125 125.191H64.3719C54.0156 125.191 45.6219 133.584 45.6219 143.941V329.959H341.875Z" fill="#64A3D8"/>
<path d="M319.913 329.96V159.056C319.913 155.603 317.116 152.806 313.663 152.806H73.8344C70.3813 152.806 67.5844 155.603 67.5844 159.056V329.96H319.913Z" fill="#EEFDFF"/>
<path d="M9.54376 329.959V342.25C9.54376 352.509 17.8625 360.828 28.1219 360.828H359.372C369.634 360.828 377.953 352.509 377.953 342.25V329.959H9.54376Z" fill="#64A3D8"/>
<path d="M134.213 329.959V336.181C134.213 341.375 138.422 345.584 143.616 345.584H243.875C249.069 345.584 253.281 341.372 253.281 336.181V329.959H134.213Z" fill="#95CFD7"/>
<path d="M130.941 218.053H256.556V329.959H130.941V218.053Z" fill="#95CFD7"/>
<path d="M286.256 258.037H270.281V329.956H296.875V254.966C293.797 256.9 290.162 258.037 286.256 258.037V258.037Z" fill="#95CFD7"/>
<path d="M286.256 218.053H256.556V258.04H286.256C297.297 258.04 306.25 249.09 306.25 238.047C306.25 227.003 297.297 218.053 286.256 218.053V218.053Z" fill="#95CFD7"/>
<path d="M101.244 258.037C97.3375 258.037 93.7062 256.9 90.625 254.962V329.956H117.219V258.037H101.244Z" fill="#95CFD7"/>
<path d="M101.244 218.053H130.944V258.04H101.244C90.2031 258.04 81.25 249.09 81.25 238.047C81.25 227.003 90.2 218.053 101.244 218.053V218.053Z" fill="#95CFD7"/>
<path d="M175.259 205.594H212.238V218.05H175.259V205.594Z" fill="#95CFD7"/>
<path d="M272.678 109.562C273.125 112.159 273.406 114.816 273.406 117.541V158.719C273.406 159.419 273.331 160.1 273.3 160.791C285.753 158.916 295.309 148.2 295.309 135.225C295.313 122.034 285.438 111.169 272.678 109.562Z" fill="#95CFD7"/>
<path d="M114.094 158.719V117.541C114.094 114.816 114.375 112.162 114.822 109.562C102.063 111.166 92.1875 122.031 92.1875 135.225C92.1875 148.2 101.744 158.916 114.197 160.791C114.169 160.1 114.094 159.419 114.094 158.719V158.719Z" fill="#95CFD7"/>
<path d="M226.531 205.594H160.969C135.081 205.594 114.094 184.606 114.094 158.719V117.541C114.094 91.653 135.081 70.6655 160.969 70.6655H226.531C252.419 70.6655 273.406 91.653 273.406 117.541V158.719C273.406 184.609 252.419 205.594 226.531 205.594Z" fill="#95CFD7"/>
<path d="M226.531 70.6655H160.969C135.081 70.6655 114.094 91.653 114.094 117.541V126.916C114.094 101.028 135.081 80.0405 160.969 80.0405H226.531C252.419 80.0405 273.406 101.028 273.406 126.916V117.541C273.406 91.653 252.419 70.6655 226.531 70.6655Z" fill="white"/>
<path d="M222.253 187.756H165.247C147.988 187.756 133.997 173.766 133.997 156.506V135.684C133.997 118.425 147.988 104.434 165.247 104.434H222.25C239.509 104.434 253.5 118.425 253.5 135.684V156.506C253.503 173.766 239.509 187.756 222.253 187.756V187.756Z" fill="#FFD2D2"/>
<path d="M221.875 48.3969C227.874 48.3969 232.737 43.5336 232.737 37.5344C232.737 31.5352 227.874 26.6719 221.875 26.6719C215.876 26.6719 211.013 31.5352 211.013 37.5344C211.013 43.5336 215.876 48.3969 221.875 48.3969Z" fill="#EB5757"/>
<path d="M165.625 48.3969C171.624 48.3969 176.488 43.5336 176.488 37.5344C176.488 31.5352 171.624 26.6719 165.625 26.6719C159.626 26.6719 154.763 31.5352 154.763 37.5344C154.763 43.5336 159.626 48.3969 165.625 48.3969Z" fill="#EB5757"/>
<path d="M315.103 357.703H279.166C277.437 357.703 276.041 359.1 276.041 360.828C276.041 362.556 277.437 363.953 279.166 363.953H315.103C316.831 363.953 318.228 362.556 318.228 360.828C318.228 359.1 316.831 357.703 315.103 357.703Z" fill="#333333"/>
<path d="M377.953 326.834H345V143.941C345 131.881 335.184 122.066 323.125 122.066H295.275C291.337 114.369 284.05 108.678 275.359 106.862C270.45 84.4093 250.437 67.5406 226.534 67.5406H225V51.1437C231.209 49.7156 235.866 44.1718 235.866 37.5343C235.866 29.8187 229.591 23.5437 221.875 23.5437C214.159 23.5437 207.884 29.8187 207.884 37.5343C207.884 44.1718 212.541 49.7156 218.75 51.1437V67.5406H168.75V51.1437C174.959 49.7156 179.616 44.1718 179.616 37.5343C179.616 29.8187 173.341 23.5437 165.625 23.5437C157.909 23.5437 151.634 29.8187 151.634 37.5343C151.634 44.1718 156.291 49.7156 162.5 51.1437V67.5406H160.969C137.066 67.5406 117.053 84.4093 112.144 106.862C103.45 108.678 96.1656 114.369 92.2281 122.066H64.3719C52.3125 122.066 42.4969 131.881 42.4969 143.941V326.834H9.54376C7.81564 326.834 6.41876 328.231 6.41876 329.959V342.25C6.41876 354.219 16.1531 363.953 28.1219 363.953H266.666C268.394 363.953 269.791 362.556 269.791 360.828C269.791 359.1 268.394 357.703 266.666 357.703H28.1219C19.6 357.703 12.6688 350.769 12.6688 342.25V333.084H130.944H374.831V342.25C374.831 350.772 367.897 357.703 359.375 357.703H327.866C326.137 357.703 324.741 359.1 324.741 360.828C324.741 362.556 326.137 363.953 327.866 363.953H359.375C371.344 363.953 381.081 354.219 381.081 342.25V329.959C381.078 328.231 379.681 326.834 377.953 326.834V326.834ZM214.138 37.5343C214.138 33.2687 217.609 29.7937 221.878 29.7937C226.147 29.7937 229.619 33.2656 229.619 37.5343C229.619 41.8031 226.141 45.275 221.875 45.275C217.609 45.275 214.138 41.8 214.138 37.5343V37.5343ZM157.887 37.5343C157.887 33.2687 161.359 29.7937 165.628 29.7937C169.897 29.7937 173.369 33.2656 173.369 37.5343C173.369 41.8031 169.891 45.275 165.625 45.275C161.359 45.275 157.887 41.8 157.887 37.5343V37.5343ZM323.125 128.316C331.741 128.316 338.75 135.325 338.75 143.941V326.834H323.037V159.059C323.037 153.891 318.831 149.684 313.662 149.684H294.541C297.006 145.425 298.441 140.497 298.441 135.228C298.441 132.844 298.122 130.534 297.575 128.316H323.125ZM292.187 135.228C292.187 145.294 285.606 153.816 276.531 156.809V117.541C276.531 116.206 276.434 114.894 276.331 113.584C285.509 116.516 292.187 125.087 292.187 135.228ZM117.219 117.541C117.219 93.4156 136.844 73.7906 160.969 73.7906H226.531C250.656 73.7906 270.281 93.4156 270.281 117.541V158.719C270.281 182.844 250.656 202.469 226.531 202.469H212.237H175.259H160.969C136.844 202.469 117.219 182.844 117.219 158.719V117.541ZM209.112 214.928H178.384V208.719H209.112V214.928ZM111.169 113.581C111.066 114.891 110.969 116.203 110.969 117.537V156.806C101.894 153.812 95.3125 145.291 95.3125 135.225C95.3125 125.087 101.991 116.516 111.169 113.581ZM48.7469 143.941C48.7469 135.325 55.7563 128.316 64.3719 128.316H89.9281C89.3813 130.534 89.0625 132.841 89.0625 135.228C89.0625 140.497 90.4938 145.425 92.9625 149.684H73.8344C68.6656 149.684 64.4594 153.891 64.4594 159.059V326.834H48.7469V143.941ZM70.7094 159.059C70.7094 157.334 72.1094 155.934 73.8344 155.934H97.8188C101.478 159.509 106.075 162.119 111.203 163.369C113.559 188.766 134.969 208.719 160.969 208.719H172.134V214.925H130.941H101.241C88.4938 214.925 78.125 225.294 78.125 238.041C78.125 245.637 81.825 252.372 87.5 256.587V326.831H70.7094V159.059ZM84.375 238.044C84.375 228.741 91.9406 221.178 101.241 221.178H127.816V254.916H101.241C91.9406 254.912 84.375 247.347 84.375 238.044V238.044ZM127.816 261.162V326.834H120.344V261.162H127.816ZM93.75 326.834V259.894C96.1031 260.703 98.6188 261.166 101.241 261.166H114.091V326.837H93.75V326.834ZM134.066 326.834V258.037V221.178H175.259H212.237H253.434V258.041V326.837H134.066V326.834ZM286.256 254.912H259.684V221.178H286.256C295.559 221.178 303.125 228.744 303.125 238.044C303.125 247.344 295.556 254.912 286.256 254.912ZM267.156 261.162V326.834H259.681V261.162H267.156ZM273.406 326.834V261.162H286.253C288.878 261.162 291.394 260.7 293.747 259.891V326.834H273.406ZM300 326.834V256.591C305.675 252.372 309.375 245.641 309.375 238.044C309.375 225.297 299.003 214.928 286.256 214.928H256.559H215.362V208.719H226.531C252.531 208.719 273.941 188.762 276.297 163.369C281.425 162.116 286.022 159.506 289.681 155.934H313.659C315.384 155.934 316.784 157.334 316.784 159.059V326.834H300Z" fill="#333333"/>
<path d="M165.247 190.881H222.25C241.203 190.881 256.625 175.459 256.625 156.506V135.684C256.625 116.731 241.203 101.309 222.25 101.309H165.247C146.294 101.309 130.872 116.731 130.872 135.684V156.506C130.872 175.462 146.294 190.881 165.247 190.881V190.881ZM137.122 135.684C137.122 120.175 149.738 107.559 165.247 107.559H222.25C237.759 107.559 250.375 120.175 250.375 135.684V156.506C250.375 172.016 237.759 184.631 222.25 184.631H165.247C149.738 184.631 137.122 172.016 137.122 156.506V135.684Z" fill="#333333"/>
<path d="M193.75 172.438C201.5 172.438 207.809 166.128 207.809 158.375C207.809 156.647 206.412 155.25 204.684 155.25C202.956 155.25 201.559 156.647 201.559 158.375C201.559 162.684 198.056 166.188 193.75 166.188C189.441 166.188 185.937 162.684 185.937 158.375C185.937 156.647 184.541 155.25 182.812 155.25C181.084 155.25 179.688 156.647 179.688 158.375C179.688 166.128 185.997 172.438 193.75 172.438V172.438Z" fill="#333333"/>
<path d="M169.928 145.756C174.369 145.756 177.969 142.156 177.969 137.715C177.969 133.275 174.369 129.675 169.928 129.675C165.488 129.675 161.888 133.275 161.888 137.715C161.888 142.156 165.488 145.756 169.928 145.756Z" fill="#333333"/>
<path d="M217.572 145.756C222.013 145.756 225.613 142.156 225.613 137.715C225.613 133.275 222.013 129.675 217.572 129.675C213.131 129.675 209.531 133.275 209.531 137.715C209.531 142.156 213.131 145.756 217.572 145.756Z" fill="#333333"/>
</svg>
