<svg width="400" height="420" viewBox="0 0 400 389" fill="none" xmlns="http://www.w3.org/2000/svg">
<path d="M390.456 331.748H357.497V154.044C357.497 142.327 347.681 132.79 335.622 132.79H243.894L246.128 113.692C246.216 112.939 246.013 112.183 245.556 111.569L208.781 62.12C207.603 60.5411 204.894 60.5411 203.716 62.12L166.944 111.566C166.488 112.18 166.284 112.936 166.372 113.689L168.606 132.787H76.8719C64.8125 132.787 54.9969 142.324 54.9969 154.041V331.745H22.0438C20.3156 331.745 18.9188 333.102 18.9188 334.781V346.723C18.9188 358.352 28.6531 367.81 40.6219 367.81H371.872C383.844 367.81 393.581 358.352 393.581 346.723V334.781C393.581 333.105 392.184 331.748 390.456 331.748V331.748Z" fill="#E6E7E8"/>
<path d="M133.381 56.9249C139.091 56.9249 143.859 53.1173 145.253 47.989H179.047C158.728 57.4714 144.447 77.174 143.275 100.223H138.147C136.419 100.223 135.022 101.58 135.022 103.259V118.993C135.022 120.672 136.419 122.03 138.147 122.03H154.341C156.069 122.03 157.466 120.672 157.466 118.993V103.259C157.466 101.58 156.069 100.223 154.341 100.223H149.528C151.159 71.1621 175.938 47.989 206.25 47.989C236.563 47.989 261.341 71.1621 262.975 100.223H258.163C256.434 100.223 255.038 101.58 255.038 103.259V118.993C255.038 120.672 256.434 122.03 258.163 122.03H274.356C276.084 122.03 277.481 120.672 277.481 118.993V103.259C277.481 101.58 276.084 100.223 274.356 100.223H269.228C268.059 77.174 253.775 57.4714 233.456 47.989H267.25C268.644 53.1173 273.413 56.9249 279.122 56.9249C285.919 56.9249 291.444 51.5536 291.444 44.9527C291.444 38.3517 285.916 32.9805 279.122 32.9805C273.413 32.9805 268.644 36.788 267.25 41.9163H145.253C143.859 36.788 139.091 32.9805 133.381 32.9805C126.584 32.9805 121.059 38.3517 121.059 44.9527C121.059 51.5536 126.584 56.9249 133.381 56.9249V56.9249Z" fill="#E6E7E8"/>
<path d="M341.875 322.639V141.899C341.875 131.837 333.481 123.681 323.125 123.681H64.3719C54.0156 123.681 45.6219 131.837 45.6219 141.899V322.639H341.875Z" fill="#95CFD7"/>
<path d="M319.913 322.639V156.586C319.913 153.231 317.116 150.513 313.663 150.513H73.8344C70.3813 150.513 67.5844 153.231 67.5844 156.586V322.639H319.913Z" fill="#EEFDFF"/>
<path d="M313.663 150.513H304.288C307.741 150.513 310.538 153.234 310.538 156.586V322.636H319.913V156.586C319.913 153.234 317.113 150.513 313.663 150.513Z" fill="white"/>
<path d="M9.54376 322.639V334.581C9.54376 344.549 17.8625 352.632 28.1219 352.632H359.372C369.634 352.632 377.953 344.549 377.953 334.581V322.639H9.54376Z" fill="#95CFD7"/>
<path d="M134.213 322.639V328.684C134.213 333.731 138.422 337.821 143.616 337.821H243.875C249.069 337.821 253.281 333.728 253.281 328.684V322.639H134.213Z" fill="#64A3D8"/>
<path d="M163.916 180.05H223.584C235.319 227.286 242.744 275.403 242.334 322.639C207.863 322.639 179.641 322.639 145.166 322.639C144.756 275.403 152.181 227.283 163.916 180.05V180.05Z" fill="#64A3D8"/>
<path d="M164.706 180.05H222.797C228.344 180.05 232.841 175.681 232.841 170.292C232.841 164.902 228.344 160.533 222.797 160.533H164.706C159.159 160.533 154.663 164.902 154.663 170.292C154.663 175.681 159.159 180.05 164.706 180.05Z" fill="#EB5757"/>
<path d="M156.975 101.203L193.75 51.7539L230.525 101.203L223.584 160.536H163.916L156.975 101.203Z" fill="#FFD2D2"/>
<path d="M193.75 114.715C196.929 114.715 199.506 112.211 199.506 109.122C199.506 106.033 196.929 103.529 193.75 103.529C190.571 103.529 187.994 106.033 187.994 109.122C187.994 112.211 190.571 114.715 193.75 114.715Z" fill="#EB5757"/>
<path d="M266.619 41.7433C271.698 41.7433 275.816 37.7426 275.816 32.8075C275.816 27.8723 271.698 23.8716 266.619 23.8716C261.539 23.8716 257.422 27.8723 257.422 32.8075C257.422 37.7426 261.539 41.7433 266.619 41.7433Z" fill="#EB5757"/>
<path d="M120.881 41.7433C125.961 41.7433 130.078 37.7426 130.078 32.8075C130.078 27.8723 125.961 23.8716 120.881 23.8716C115.802 23.8716 111.684 27.8723 111.684 32.8075C111.684 37.7426 115.802 41.7433 120.881 41.7433Z" fill="#EB5757"/>
<path d="M245.663 91.1138H261.856V106.848H245.663V91.1138Z" fill="#EB5757"/>
<path d="M125.644 91.1138H141.837V106.848H125.644V91.1138Z" fill="#EB5757"/>
<path d="M67.5844 229.233C69.3125 229.233 70.7094 227.875 70.7094 226.196V203.579C70.7094 201.9 69.3125 200.542 67.5844 200.542C65.8563 200.542 64.4594 201.9 64.4594 203.579V226.196C64.4594 227.875 65.8563 229.233 67.5844 229.233Z" fill="#333333"/>
<path d="M377.953 319.603H345V141.899C345 130.182 335.184 120.645 323.125 120.645H231.394L233.628 101.547C233.716 100.794 233.512 100.037 233.056 99.4241L196.284 49.9747C195.106 48.3958 192.397 48.3958 191.219 49.9747L154.444 99.4241C153.987 100.037 153.784 100.794 153.872 101.547L156.106 120.645H64.3719C52.3125 120.645 42.4969 130.182 42.4969 141.899V319.6H9.54376C7.81564 319.6 6.41876 320.957 6.41876 322.636V334.581C6.41876 346.207 16.1531 355.665 28.1219 355.665H359.372C371.341 355.665 381.078 346.207 381.078 334.581V322.636C381.078 320.96 379.681 319.603 377.953 319.603ZM323.125 126.718C331.741 126.718 338.75 133.528 338.75 141.899V319.6H323.037V156.586C323.037 151.564 318.831 147.477 313.662 147.477H228.256L230.684 126.718H323.125ZM164.703 163.572H222.794C226.609 163.572 229.712 166.587 229.712 170.295C229.712 173.999 226.609 177.014 222.794 177.014H164.703C160.891 177.014 157.787 173.999 157.787 170.295C157.787 166.587 160.891 163.572 164.703 163.572V163.572ZM166.378 183.087H221.122C233.366 233.001 239.294 277.72 239.225 319.603H148.275C148.203 277.729 154.131 233.013 166.378 183.087V183.087ZM245.428 319.603C245.5 277.407 239.569 232.403 227.309 182.264C232.344 180.463 235.962 175.803 235.962 170.295C235.962 164.678 232.191 159.947 226.997 158.231L227.544 153.553H313.659C315.384 153.553 316.784 154.913 316.784 156.589V319.603H245.428ZM193.75 106.566C195.2 106.566 196.381 107.713 196.381 109.122C196.381 110.531 195.2 111.679 193.75 111.679C192.3 111.679 191.119 110.531 191.119 109.122C191.119 107.713 192.3 106.566 193.75 106.566ZM190.625 61.1392V101.076C187.272 102.309 184.869 105.439 184.869 109.125C184.869 113.883 188.85 117.754 193.75 117.754C198.65 117.754 202.631 113.886 202.631 109.125C202.631 105.439 200.231 102.309 196.875 101.076V61.1392L227.281 102.029L220.794 157.503H166.706L160.219 102.029L190.625 61.1392ZM48.7469 141.899C48.7469 133.528 55.7563 126.718 64.3719 126.718H156.819L159.247 147.477H73.8344C68.6656 147.477 64.4594 151.564 64.4594 156.586V190.295C64.4594 191.974 65.8563 193.331 67.5844 193.331C69.3125 193.331 70.7094 191.974 70.7094 190.295V156.586C70.7094 154.91 72.1094 153.549 73.8344 153.549H159.956L160.503 158.228C155.309 159.944 151.537 164.675 151.537 170.295C151.537 175.803 155.156 180.466 160.191 182.264C147.931 232.415 141.997 277.416 142.072 319.603H70.7094V238.305C70.7094 236.626 69.3125 235.269 67.5844 235.269C65.8563 235.269 64.4594 236.626 64.4594 238.305V319.6H48.7469V141.899ZM374.828 334.581C374.828 342.861 367.894 349.592 359.372 349.592H28.1219C19.6 349.592 12.6688 342.858 12.6688 334.581V325.672H374.831V334.581H374.828Z" fill="#333333"/>
<path d="M120.881 44.7796C126.591 44.7796 131.359 40.9721 132.753 35.8437H166.547C146.228 45.3261 131.944 65.0288 130.775 88.0805H125.647C123.919 88.0805 122.522 89.4377 122.522 91.1168V106.851C122.522 108.53 123.919 109.887 125.647 109.887H141.841C143.569 109.887 144.966 108.53 144.966 106.851V91.1168C144.966 89.4377 143.569 88.0805 141.841 88.0805H137.028C138.663 59.0169 163.441 35.8407 193.75 35.8407C224.059 35.8407 248.841 59.0138 250.475 88.0775H245.663C243.934 88.0775 242.538 89.4347 242.538 91.1138V106.848C242.538 108.527 243.934 109.884 245.663 109.884H261.856C263.584 109.884 264.981 108.527 264.981 106.848V91.1138C264.981 89.4347 263.584 88.0775 261.856 88.0775H256.728C255.559 65.0258 241.275 45.3231 220.956 35.8407H254.75C256.144 40.969 260.913 44.7766 266.622 44.7766C273.419 44.7766 278.944 39.4053 278.944 32.8044C278.944 26.2034 273.416 20.8352 266.622 20.8352C260.913 20.8352 256.144 24.6427 254.75 29.768H132.753C131.359 24.6427 126.591 20.8352 120.881 20.8352C114.084 20.8352 108.559 26.2064 108.559 32.8044C108.556 39.4084 114.084 44.7796 120.881 44.7796V44.7796ZM138.713 103.812H128.769V94.1501H138.713V103.812ZM258.731 103.812H248.788V94.1501H258.731V103.812ZM266.619 26.9078C269.966 26.9078 272.691 29.5525 272.691 32.8044C272.691 36.0563 269.966 38.7039 266.619 38.7039C263.272 38.7039 260.547 36.0563 260.547 32.8044C260.547 29.5525 263.272 26.9078 266.619 26.9078ZM120.881 26.9078C124.228 26.9078 126.953 29.5525 126.953 32.8044C126.953 36.0563 124.228 38.7039 120.881 38.7039C117.534 38.7039 114.809 36.0563 114.809 32.8044C114.809 29.5525 117.531 26.9078 120.881 26.9078Z" fill="#333333"/>
</svg>
